# xmcd
#
# Track frame offsets:
#	150
#	12423
#	25561
#	38305
#	51996
#	66022
#	79208
#	91207
#	105717
#	117811
#	133949
#	148104
#	161952
#	177742
#	196008
#
# Disc length: 2793 seconds
#
# Revision: 1
# Processed by: cddbd v1.5.2PL0 Copyright (c) Steve Scherf et al.
# Submitted via: audiograbber 1.83.01
#
DISCID=c90ae70f
DTITLE=Skip Kelley and Ed Dodson - Little Green Valley
DYEAR=2006
DGENRE=Bluegrass
TTITLE0=You Must Come In at the Door
TTITLE1=Salt Creek
TTITLE2=Dream of an Old Love Affair
TTITLE3=Power in the Blood
TTITLE4=Hunting Cog
TTITLE5=Back to the Old Home
TTITLE6=Ashland Breakdown
TTITLE7=My Bonny Lies Under the Sea
TTITLE8=Wood Sheddin'
TTITLE9=Little Green Valley
TTITLE10=East Tennessee Blues
TTITLE11=Down This Lonesome Road
TTITLE12=Old Ebenezer Scrooge
TTITLE13=Helping Hand
TTITLE14=My Little Home in Tennessee
EXTD=
EXTT0=
EXTT1=
EXTT2=
EXTT3=
EXTT4=
EXTT5=
EXTT6=
EXTT7=
EXTT8=
EXTT9=
EXTT10=
EXTT11=
EXTT12=
EXTT13=
EXTT14=
PLAYORDER=
